<mxfile host="Electron" agent="Mozilla/5.0 (Windows NT 10.0; Win64; x64) AppleWebKit/537.36 (KHTML, like Gecko) draw.io/24.7.8 Chrome/128.0.6613.36 Electron/32.0.1 Safari/537.36" version="24.7.8" pages="2">
  <diagram name="PÃ¡gina-1" id="2QnKWNWFh1VxKxxH-3J8">
    <mxGraphModel dx="794" dy="519" grid="1" gridSize="10" guides="1" tooltips="1" connect="1" arrows="1" fold="1" page="1" pageScale="1" pageWidth="827" pageHeight="1169" math="0" shadow="0">
      <root>
        <mxCell id="0" />
        <mxCell id="1" parent="0" />
        <mxCell id="bVN0sTienKKLo_vyaWgs-2" value="&lt;b&gt;&lt;font style=&quot;font-size: 14px;&quot;&gt;User&lt;/font&gt;&lt;/b&gt;" style="sketch=0;outlineConnect=0;fontColor=#232F3E;gradientColor=none;fillColor=#232F3D;strokeColor=none;dashed=0;verticalLabelPosition=bottom;verticalAlign=top;align=center;html=1;fontSize=12;fontStyle=0;aspect=fixed;pointerEvents=1;shape=mxgraph.aws4.user;" parent="1" vertex="1">
          <mxGeometry x="870" y="230" width="90" height="90" as="geometry" />
        </mxCell>
        <mxCell id="bVN0sTienKKLo_vyaWgs-3" value="&lt;b&gt;&lt;font style=&quot;font-size: 14px;&quot;&gt;Optimizer&lt;br&gt;&lt;/font&gt;&lt;/b&gt;" style="rounded=0;whiteSpace=wrap;html=1;" parent="1" vertex="1">
          <mxGeometry x="360" y="220" width="130" height="120" as="geometry" />
        </mxCell>
        <mxCell id="bVN0sTienKKLo_vyaWgs-5" style="edgeStyle=orthogonalEdgeStyle;rounded=0;orthogonalLoop=1;jettySize=auto;html=1;entryX=0;entryY=0.5;entryDx=0;entryDy=0;" parent="1" edge="1">
          <mxGeometry relative="1" as="geometry">
            <mxPoint x="260" y="306" as="sourcePoint" />
            <mxPoint x="360" y="306" as="targetPoint" />
          </mxGeometry>
        </mxCell>
        <mxCell id="bVN0sTienKKLo_vyaWgs-6" style="edgeStyle=orthogonalEdgeStyle;rounded=0;orthogonalLoop=1;jettySize=auto;html=1;" parent="1" edge="1">
          <mxGeometry relative="1" as="geometry">
            <mxPoint x="360" y="256" as="sourcePoint" />
            <mxPoint x="260" y="256" as="targetPoint" />
            <Array as="points">
              <mxPoint x="325" y="256" />
              <mxPoint x="325" y="256" />
            </Array>
          </mxGeometry>
        </mxCell>
        <mxCell id="bVN0sTienKKLo_vyaWgs-7" style="edgeStyle=orthogonalEdgeStyle;rounded=0;orthogonalLoop=1;jettySize=auto;html=1;" parent="1" edge="1">
          <mxGeometry relative="1" as="geometry">
            <mxPoint x="870" y="256" as="sourcePoint" />
            <mxPoint x="720" y="255" as="targetPoint" />
            <Array as="points">
              <mxPoint x="720" y="256" />
            </Array>
          </mxGeometry>
        </mxCell>
        <mxCell id="bVN0sTienKKLo_vyaWgs-8" style="edgeStyle=orthogonalEdgeStyle;rounded=0;orthogonalLoop=1;jettySize=auto;html=1;" parent="1" edge="1">
          <mxGeometry relative="1" as="geometry">
            <mxPoint x="720" y="305" as="sourcePoint" />
            <mxPoint x="870" y="305" as="targetPoint" />
          </mxGeometry>
        </mxCell>
        <mxCell id="bVN0sTienKKLo_vyaWgs-12" value="3" style="ellipse;whiteSpace=wrap;html=1;aspect=fixed;" parent="1" vertex="1">
          <mxGeometry x="293" y="240" width="30" height="30" as="geometry" />
        </mxCell>
        <mxCell id="bVN0sTienKKLo_vyaWgs-13" value="4" style="ellipse;whiteSpace=wrap;html=1;aspect=fixed;" parent="1" vertex="1">
          <mxGeometry x="294" y="290" width="30" height="30" as="geometry" />
        </mxCell>
        <mxCell id="bVN0sTienKKLo_vyaWgs-14" value="6" style="ellipse;whiteSpace=wrap;html=1;aspect=fixed;" parent="1" vertex="1">
          <mxGeometry x="783" y="290" width="30" height="30" as="geometry" />
        </mxCell>
        <mxCell id="bVN0sTienKKLo_vyaWgs-15" value="1" style="ellipse;whiteSpace=wrap;html=1;aspect=fixed;" parent="1" vertex="1">
          <mxGeometry x="783" y="240" width="30" height="30" as="geometry" />
        </mxCell>
        <mxCell id="bVN0sTienKKLo_vyaWgs-16" value="&lt;span style=&quot;font-size: 14px;&quot;&gt;&lt;b&gt;web app&lt;/b&gt;&lt;/span&gt;" style="rounded=0;whiteSpace=wrap;html=1;" parent="1" vertex="1">
          <mxGeometry x="590" y="220" width="130" height="120" as="geometry" />
        </mxCell>
        <mxCell id="bVN0sTienKKLo_vyaWgs-17" style="edgeStyle=orthogonalEdgeStyle;rounded=0;orthogonalLoop=1;jettySize=auto;html=1;entryX=0;entryY=0.5;entryDx=0;entryDy=0;" parent="1" edge="1">
          <mxGeometry relative="1" as="geometry">
            <mxPoint x="490" y="306" as="sourcePoint" />
            <mxPoint x="590" y="306" as="targetPoint" />
          </mxGeometry>
        </mxCell>
        <mxCell id="bVN0sTienKKLo_vyaWgs-18" style="edgeStyle=orthogonalEdgeStyle;rounded=0;orthogonalLoop=1;jettySize=auto;html=1;" parent="1" edge="1">
          <mxGeometry relative="1" as="geometry">
            <mxPoint x="590" y="256" as="sourcePoint" />
            <mxPoint x="490" y="256" as="targetPoint" />
            <Array as="points">
              <mxPoint x="555" y="256" />
              <mxPoint x="555" y="256" />
            </Array>
          </mxGeometry>
        </mxCell>
        <mxCell id="bVN0sTienKKLo_vyaWgs-19" value="2" style="ellipse;whiteSpace=wrap;html=1;aspect=fixed;" parent="1" vertex="1">
          <mxGeometry x="523" y="240" width="30" height="30" as="geometry" />
        </mxCell>
        <mxCell id="bVN0sTienKKLo_vyaWgs-20" value="5" style="ellipse;whiteSpace=wrap;html=1;aspect=fixed;" parent="1" vertex="1">
          <mxGeometry x="524" y="290" width="30" height="30" as="geometry" />
        </mxCell>
        <mxCell id="bVN0sTienKKLo_vyaWgs-26" value="&lt;font face=&quot;Helvetica&quot;&gt;&lt;b&gt;GenAI model&lt;/b&gt;&lt;/font&gt;" style="text;whiteSpace=wrap;html=1;fontFamily=Architects Daughter;fontSource=https%3A%2F%2Ffonts.googleapis.com%2Fcss%3Ffamily%3DArchitects%2BDaughter;" parent="1" vertex="1">
          <mxGeometry x="155" y="306.67" width="110" height="50" as="geometry" />
        </mxCell>
        <mxCell id="bVN0sTienKKLo_vyaWgs-28" value="" style="shape=image;verticalLabelPosition=bottom;labelBackgroundColor=default;verticalAlign=top;aspect=fixed;imageAspect=0;image=data:image/png,iVBORw0KGgoAAAANSUhEUgAAAgAAAAIACAYAAAD0eNT6AABKl0lEQVR42uzdeZQc1XUG8DtsBgHC7GDAGJAhbkCa9v2+1z3jcQaD2RfjkDECjNiMgOCAzRJxDjnsYbFjjIBAOIDZbIewhDWQRCCxmk0sxiwCs5gdgxAoIEVC0ihp0krAR0iamXrVr7q+3zn3Lx9zWl01db9+VXWfiUjmliK5OYA9ARwD4FySNwN4nOSLAN4GMA3AdJLzSc4A8BrJJ0neBeCG5v/nUHffqrOzc00TERGRtIQQhrv7d0ieDmDigsaeZQGYSvI2AMfWajVvhAwTERGRfNXr9fVIHgbg30jOJjk/zwLwHsnrAXx/5MiRK5qIiIjE0dvbu3wIYQzJ+0n2k5yfSH1I8soQwnZ9fX1Lm4iIiAydu29C8ifNZfj5KVfzWYKjKpXKSiYiIiIDV6vVvkLyIgBzU234iwgC0wGMd/d1TURERBYPwAYALgYwJ9UGP4D6iOTJ7j7MREREZOH3+AGcRnJWos18KPUKye+ZiIiI/L8QwjdJTkm0eWdZk2q12tdMRESkzLq7u1cGcAHJ/kQbdoyaQfJQExERKSN33xLAc4k26TzqJk0ZFBGRUgGwL8kZiTbmPOtNd+8xERGRdlapVJYDcGGizbhVNYvkPiYiItKO3H0YydsSbcKtrn4AZ5pZh4mIiLSLUaNGfZHkfYk232QKwBUaJywiIm2hVqutDeDxVJtuagXgGoUAEREpNJKrA3g61WabcP1CWw6LiEgh1ev1FbTsP6S6VM8EiIhIoTSWsAH8S6KNtTAF4AQTEREpCgCXpNpUC1b9IYTdTUREJHUkD060mRa1PnT3LU1ERCRVzfG+MxNbRp8J4AEAvwRwBoDDAYwFMDqE0AdgLMnjAPyM5I0Ank9wK+IX6/X6aiYiIpKaSqWyEslnE2iWH5OcQPIId/96b2/vMoPZmjiEsHVze+KHUtisCMCvTUREJDUALm9xg3wEwIGNoUMRVjY2AXACyRda/G/cw0RERFIB4NstbIw3AqBZPm83kPweycda9G99p6uray0TERFpqeZyOYDnW9AMJ7l7zVokhNBH8g8t+HdfZyIiIq1G8qScl8GnATgwhSE57j4MwKl5PzQYQtjaREREWqVWq32V5Kwcm/+dJNexxJDsIvlijiHgUY0KFhGRliF5VV4DcUj+Xcqb5IQQhgO4JccwtK+JiIjkqvnrH8DcPF7rc/e9rACaI5DPzSkEvNLYb8FEREQ+qy1e+5vh7jtZwQA4IacQcKiJiIjkpVqtjgAwJ4eBPttbQQE4LYcAMEU7BoqISG5Inp/DPf99rOAAXJjDGwE7m4iIiOXz3v+0yA+4nWhtwN2XJXlX5O/qDhMREYmN5N6xG1o7veLW2dm5Jsk3Iq8CVExERCQmAHfGHHVLch1rM+6+U+RbASebiIhILCGEjSLvjLeftSkAl0RcNXnGREREYnH3H0dsYne38xPtPT09qwJ4L9b35+5bmoiISAwAbo/11D+AqrU5AMdGDFCnmoiISNYaU+cAzIzUwG6yEmi+QfF6pAAw2URERLJGcoeI9/5hJUHyuEgBYG53d/fKJiIikiUAfx+p+T9kJVKv11cj+VGk1wG3MxERkSzFGmjj7odYyQC4XM8BiIhIIQB4LkLTmuXuq1jJNMb3RlpNmWQiIiJZIvlChIY1wUqoUqksF2OcMoCpJiIikiUAv4kQAI62kiJ5fYxVgMa8ARMREUl5ZzsAW1hJAfhRpOcAaCIiIlkBsFvGzer3VmIkEemhyr1MREQky/vWGQ+xOc5KrDFYKdK+Cn9rIiIiWSJ5cEZN6s1KpbKSlRyA1yIEgHNMREQkYx0Z7Acwj+QOJkZyUoRnAC4xERGRrLn7KiQfG+ymP+7+Q5NPkLw2QgD4ZxMRkTQ1NoUhuTrJdYq4FB5CGE7yxgE2pw8BjDb5PwAui3AL4F9NRETyNXLkyBXd/esARgM4EcCvST4I4CkALwOYBmDO51y432/eE54CYDKAGwCcBeBAAN0kV7fEANgTwNOLaUizSV4FYAOTzyB5XoQVgLtNRETi6evrW9rdA8lxzfvir5KcH7MATCV5L4AzQgjbNQKHtV4HyS4AJ5K8muSE5vdxEYADa7Xa2iYLRfLsCOfIb0xERLIVQhjVHOByM8kPSM5vcc0meS/Jk919q8areiaFoQAgIpKwEML6JMct2Awn5WrOl7/I3XvMrMMkaQoAIiKJCSEMDyGMITmBZH+qDX8xNYXkSe6+icmAKQCIiJQIgI2b965nJtrUB1PzANweQvimyZJSABARKQN336TZ+Ock2sSzqvsA7KrbA4ulACAi0s5qtdpIklcCmJtow45SAJ4IIYxpvMlgslAKACIibag5hOeiAt/fz6QATHb3YPKnFABERNrMUiGEMQCmptqUW1DzSF5JcnWTBRQARETahbsHAJMTbcItLwBvkdxHzwd8QgFARKToGnP3AYwnOS/V5ptSAbijXq+vZ6IAICJSVNVqdUOSD6babBOud919JxMFABGRoiH5XZLvJ9pgi1D9AMa7+7ImCgAiIqkbMWLEFwCMT7SpFrEeqtVqXzFRABARSVVj5zkAjyTaSItc74YQ6iYKACIiqWn8Si3Chj0FrhkhhJ1NFABERFIBYAsAryfaONumAMwNIRxkogAgItJqAHpJfpBq02zD6ic5zkQBQESkVUjuAuC/Em2UbV0AzjBRABARyRvJLpIzUm2QJSmtBCgAiIjkpLmLXxHe8W+O153U3HjoOABj3X0vALuR3IbknwPYMYTQ1/zfftxsCreRfKEAuxT2AzjARAFApKler68GoPrp6xvJ7d39GyGEUSGE4SYyGCGEjUi+kWAznA3gHpInAeh191WymGlAshPAkSRvSvFZBwBzAOxqogAgpePuqwDYtXku30vynSU8V98EMBHAGe6+rbsPM5FF6erqWiuxV/0+InkVgB3zOIEb+/e7eyD508RC0IxGujdRAJC2193dvTLJ/QFMzHCVcjbJm0MIfY39W0zk0yqVynKpzPUHMJHkfpVKZSVrhWYYILk9gF+SnJXAd/IegI1NFACkLTVnrVyQw7NX7wM4s/GDz0QaEhjvOw/ALe4eLCXNlZHmrYfpLQ4BjzRuW5goAEjbCCGsD+ByAHNyvp7MJHlO45kCk/IKIexOsr+F771fVavVvmaJ6+zsXBPAaSQ/amEQOMdEAUAKr7e3dxkARwKYnsDq4pFmtpRJuQDYAMDUFp14TwDotoKpVqtfInllCwPTd00UAKSwarXaV0k+mtgDx3eQXMekHNx9WZL3t+jhvnGNBGwFFkLYmuSzLfj+3g8hbGSiACCFA2A0gOkJv1q9jUn7A3BmC06wB6rV6obWJur1+goALm7F96glOwUAKRaS4xKdOfKZPUnc/RCT9kVyc5If5zzUZnzjbQNrQwD2aMEcgcNMFACkCDpInp1q019YATjTpC11kLw3x5PpA5K7WJsDsBmAp3L8A52mV3kUACR5HQAuTrXRL6oAnGDSXkjun/M9pU4riVGjRn0RwD05fr+XmSgASLJInp5qg1+S0u2ANtLT07MqgD/m1JxeqlarI6xkmiOGr8vr1oq7b2WiACDJIXlwqo19IM8EkNzBpPgAXJjXK361Wm1tK6nmO76X5/RH+mTR36hQAJB2A2ALADNTbewDrHfq9fp6JsXV+DWe0w54L+p90gXjhHltToHrQBMFAEnCyJEjVyQ5JdFmPqgCcHfjmmZSTAAuyyMpktzU5NN7LEzI4Xt/QasACgCSBgBnpdrIh1IA/sqkeBrv3sd+7Q/AdABVk4U9GPjbHP5A9zZRAJCWCiFUSH6cahMf6jXe3dc1KRaS/5DDybGHyUK5+5cBvBf5+39aw4EUAKS1SE5ItYFnUQAuNimOxsN4sR9GAXCuySIB2DX2pkshhN1NFACkJdy9lmrjzrA+bmxdbFIMJH8SuflP1ja1SwbAubG3DDZRAJCWAHBrok076zrfJH2Nh9AiLz3PKOO7/kOcEfBk5BBAEwUAyRXJTUn2J9qwMy0AMxvPNpmkDcBfRD4ZjjcZEHf/RswLBYDxJgoAA5tbsTyAjVWDL3c/P9WGHakONkkbgBsiNprntfQ/ODGHBAGY2q6bLikARFklXAnAPYk2GdVC3scneVgIYVR3d/fKC940IgmSR5N8NKfPcY9Juur1+mokZ8U6AbRv9OCRXB3A1Ih/nLtZySkAqPm3WT3s7jVbAiS3B/Bc7DHkZZ72mjwAh0c8+DeZDAnJoyMen2ut5BQA1PzbqM5z92UHMY3wusirAKNN0kTyoYgHvtski3Gh70Q6RrNJrm4lpgCg5t8m9fOhjCMHcE3Ez3aRSXoaGzdEPOgTTDJB8viIx2kfKzEFgEUGz0mJNjvVpwrAHUMd7uXuwwA8Fekz/s4kPQD2jXVSavvZ7IQQhpN8XxO7FADM1PxVn6nZ7r6JZcDdeyJ9xlnaIChBJH8R6YA/ZpIpAD+LFABeshJTANCyf5ELwOWWIQATI/0g3MQkLQBejnRS/sgkUyQ7Y11EyjyyUwFAzb/IFULYOuOecECkALCtSToAbByp+c/RPv9xxNotEMCBVlIKAFr2L3DNbsxYibAjbIyg0meSjhDCQZGayS0mUQA4NtKF5CorKQUA/fIvagF4zrLXQXKGfmS0OQBXRDopv28SK7StH+li8qqVVNkDgJp/oevhSL3hrQif9QiTdACYHOOkrFarXzKJhuSUSEt0w62EyhwAtOxf+HrSIojxxhGAsSbpADA9wkF+2iQqABdEehDQrYTKGgDcfZiaf+HrAzPrsKw09wuI9BDgXiZpaPxK1/7PxRRC6It07Pa2EipjANCyf/tUCKFiGQKwY6TPuotJGkII34qU8v7SJCp3XyPGNsEATrESKlsAUPNvrwJwomWI5KWRPmunSRpIHhrp/v8Ik+gAvB7h+F1tJVSmANAc9zox1WamGngBeKtxXLNaGQYwM8LnnPfJZ5Q0kPx5jHdSe3t7lzGJDsCdES4kj1sJlSUA6Jd/W9fplgEAv4r0+V4xSQfJ6yNc9J4x+V/FfBDwAyuhMgQANf/2LgBzSe5gQ0DyBxE/440m6SA5IcJJeINJLgAcGeMPtVKpLGcl0+4BQM2/NPVRCGG7QT4TNgbAnAX/Lc0AaHMAHoiyH7XkguQuMf5QyzjCuZ0DgJp/uQrAHAAnLGmQ7+7uXpnkeST7I3+uLUzSEWnf55NMcuHutSK8UlQE7RoA1PzLWwBeInnE5wX6xuZfJI8H8HYen8XMOkzSQfKVCAf6GJNcNN620DCgdAMAyTcAnNnKIvlgC5rPPACHN84j1cILwK05H5PfA/h3ANc0Hx7+Q85h5FSTtACYFmEGwCEmuajX6+tF+oPtspIheXaqv+QKVvNI7meySO6+baLHL0oB2MwkLSQ/1iS54nL3NSLdAviWlYwCgJp/zpYiOSXR45hpAbjTJD0k50U42KNNclGv11eINMmxx0pGAUDNP28k90/0WOoHRRmQ/ChCADjA5NMKt5kTyU2tZBQA1Pzz5u7LAng50WOaVd1vkiaS70YIAIeb5IbkXRkfv+lmtpSVjAKAmn8rABid6HHNouaV8XmiwgDwml4DLLYQwt9oLwAFADX/4gJwe6LHd0gF4GKTdJF8MsKB/0eT3Lj7uhlv3LGNlZACgJp/q5DclOSMRI/zoArAH919DZN0kfyPCAf+VpNcATgjo+M3wUpKAUDNv5VCCAcleqwHU/M+GUcsaQNwRYyBEya56u3tXR7Ab4cY3Ka5+5etpBQA1PwXqbjX49wLwCkm6QNwVowdqUaMGPEFk/w0hwIBeGmQx+1DAN1WYgoAav6t1nyt995Ej/2S1k19fX1Lm6TP3Q+JlABpkruurq61SE4a6IpNrVYbaSWnALBEzX9/k6jcfRUATyR6Diyu7mqsRpoUg7tvFWmQzA9NWqWD5H4kn11MSHub5PH6g1UA0C//tDRX855J9Fz4vLq/EV5MisPd1420AvArk1brcPdAchzJSwFcQ/IqkicD+HYZ9/xXAFDzL4qenp5VSd6X6DnxmQJwi7sPMykekh9EOCHe1taPUiQKAGr+qWk0VZJXJ3pufFIAxvf29i5jUkwAJkY6MaomUhAKAGr+qQohjEltTgCA6QD2NCm2Be+QayKglJkCgJp/ytx9S5L3pbLkX61WNzQpvhDC7pFOlCkmUhAKAGr+BdAB4AAAb7fo3HjB3b9j0j5IrkOyP8YJU6vV3EQKQAFAzb8oGnNWAIwl+WpO58WLAMbqXn+bIvm7SEtFF5pIASgAqPkXTeNNnhBCH8mbSX6c8bV7Jsl/cvedyrg7aKmQ/GmkAPCfIYThJpK4kgcANf+C6+zsXDOEMAbA5YNdGQDwHIALG6FC1+0ScfdtI15cjjKRxJE8CsDkMlYezR/AZgD2aC5dHxxC2Nnd1zWJNhUUQC/JgwGcRvKcBfNAAFxM8mwApwA4IIRQ/x+rmZRSB8n9IwaANzRtTqR8QgjDSR5H8sXPuTb0k3yY5H6aHy+SM5JdJB/MYYnxByYipdH4hU/yjQFcIx4jubmJSEPcWdMkr1zw9H8O9bCJSCmQPIrkvME8M0RyGxOROK+PkDypFVOl3P3PTETaGslxQ7xWfEiy00QkOwC2aOU2kwAOMBFpWyTHZXSteKbxY8VEJJPpUWMH8qtfo4FFZCBIHp3x9eKvTUQGL4SwPoA7EpkffZaJSNsBcEyMsbPaUVRkkAD0Apia0LCR40zkv9m78yg7qjoP4L8OMMOi4IIaVFySCBqdTh6/7/e+TmhtQdwOigv2HIbFGRUQ0MAoxKADIiDKegQVMR5RwghzZFGUdUABkU0mE8foyOJhCQkQgQBJWLIRZ+qkmiyk092v3613q+r7Oef7/zt1q+6v3q27SKUMDPvHSAhhkonIyAD4NMnlie029iETkcqIWfzzHGQiMjzZZhoATk9wq9Hl2mlKpDoGhv0j53gTkaFNnTr1pQAuT3Sv8UtNRCqB5NGaNySSgrz4k7wl0eL/PICGiUjpFVX88zkAXzIRGVx3d/c2JG9MtPhnOc1EpPQGhv0LzAdMRDb5z//mRAt/lqvcfQsTkVIr8p//wHn0OpJWpKTFH8CFPT09W5mIlFqhxT8PgJ+YiLxYX1/f5gCuSbT4zyO5r4lI6RVd/POs0NkhIoMg+Z3Eiv4yAD8HsJfO9Raphk4U/zzHmIi8GMlDU5ndT/JaAJ+aNGnSy0xEKgPAlzv16dDMxpiIrA9AXwI7/C0jeb6G6ESqCcBRndovRJOGRTbC3ccDeKKDk/qWkDx+8uTJrzIRqSQVf5HE5JP+bu3gUP/5JMeaiFQWgOkq/iKJIXlMhx7Mm7WLX72RnEzyFyQfBbAyvy9Wk1wOYDHJh0neq5Q7AO5T8S+/7M8iySkkp5E8m+R1AO4BsBDAkvyaPwVgAcm7AFxN8kyShwJoaP5FYtx9F5Irinwo847+a5rRX18AxgH4U6JLTZVqRMW/DXp7e19O8hCSVwJYMsq+f1HWLgD2z3aZNemM/G1uy6I7YQB/dvddTGorhPBJkqsSLRpKNaLiP/rndDeSl5BcFqmNlgKY1Ww23aR4JE8r+qHUW1+9uXtW/FcnWjSUakTFf3SFf0+St3RgW/ddTYrRaDQmkFxW4D//s/T9p97yYX/981dU/BPk7uNJXtXhLd4vB7CjSVwArijqez+AA0xqj+RdiRYNpRq5RMV/5LK5WPlE8GWJnPOy2N0/axIHgD0KashV2rdfMu7em2jRUKoRFf8WTJky5dUA/jPRA99+lk1ANGn7mv8/qfhLkQBcm2jhUMofFf8WACCAhYm26UD+0mw232LSHgAOK6DRVqv4y7pIPpFoB6OUO/rm34IQwu4AFifapusFwOMhhB6Ttmzi8EABDXaciayD5POpdjBKaaN//q0V/4+SXJ5omw66VTyAqSatI7lfAY11sZl1mchaXal2LEppo+LfAgB9AJ5LtE2Hs4nQ201a0gXgfyI30pyenp6tTGQd2d4PqXYqSimj4t8Cd/8Hkk8l2qbDCoD5PT09rzMZGQAfjH2Mb3aDmcgGSI5NtUNRShcV/xZfwgH8OdE2HVEA3JR9zjYZPgDXR26UI0xkkE2nUu1MlFJFxb9FJM9PtE1bCoCvmwx/B7aY268C+JW++8tgADRS7UiU0kTFv0UhhP5E23Q0eV4rA4YJwHERG2I5gJ1NZBN7iyfaiSjliIp/i6ZOnfpSAAsSbdfRZq4+BXR+C9bTTGQTSH4x0Q5EST8Xq/i3DsDpibZrW+LunzcZXDZMEnHo/6/uvp2JbALJmal2IErSUfEfhWaz+RoAzybatm0JgEe08mwTSH43YgMcbiJDIHljqh2IkmxU/EeJ5KmJtm1bA+BzJhvVFXGv58fcfWsT2bQxABal2nkoKv5V5O7bAViSaPu2O/OyEw1N1hdCmKTtfmWTtAJAUfGvHJIHJdq+UeLu7zUpbPLVM+6+vYkMgeSRMe7BEMIFJGcolcq0WLO63X0XkrcDmF2TLC3wyPcbAHw9hPCZEEI/gIPzzw+3Dyw/LyD/brI+kldFutjnm8gwALgi0gvAJBMZZvEHoNMo27/8+/RGo/HaISYivoXkuQUcBvZ0X1/fliZrTJw48e9ILo3U+b7PRIaQzc6N8R0SwErNP5FhzoR3Ff+2504A7xjh5+h3knwo5u/Kjjg2WXvBI13ohzXhQoYDwD6Rhh1vMxEV/8KTH/j2iha3BH8jgPsjfo440WQNAEdFutDfMpFhIHllpHvwJBNR8S86D5McO8o/phNjjEzn+a3JGgDO0/C/dMqUKVNeTXJFpDf9PUxExb/QANjL2oDktEi/7wmTNQDMjjHxIztW0kSGQPLoWMdO6/u/qPgXGwC3Wpu4+xaxPgVkfzxMbAzJZyJc4BtMZAjZbNx8uPBvugelKAAaAB5PtYiWOSGET1obkTw20n4AvVZ32dILbf4jnULy8Iid0bEmouJfZFZPnjz5VRH2ZYjxovJRq7vsIujiSuHy4T2S8yLu+PVWE9Gwf2EBMD/GMnUAK1MfqSilWP/A3H28iWxCCOFLETuj201Exb/o/HekOvWoDgaKAMCJMbb/NbMxJjIIADuSXKpTv8TMNOxfnegFoEwAfK8sN4FUB8lLI3ZCK3T+hOiff/EBsKAsnwAAHGB1R/KSCBf2ChMZBMkPRe6ILjMRFf9KTALM2lDz1CIB8JsILwA/NpGNCCG8nuRjA/eKHmyJPOy/KNFCWeX8c5vb8ataBhgJgD9FeAE43UQ2kB3fCuCm2IePaP6J6J//8JL6+RsDK4W0EVAkAO6OcAN82UQ2AODksm1CIuVDEir+Hc/HrA0AHBHpJWWRiRnJOyNc4KNNZB0ADiC5OnKnc282ymBSWyr+aQTAI+6+wyjb8u0kn9ZhQOX7BPAVE8kB+DCAlQV0Ogeb1JaKf1oB8HuSr2xxrtCbIx8H/HUTM5JztQWrxOLuvQCeLWIHsgkTJvy9SS2p+KcZAHc3m83uEfYZ7wbwSORPhbubmJGcE+ECH29SeyQ/MDCEV0AONKklFf/ks4LkmdkKoCHacScAswr4VLg0O4TMxAzAf0W4wGebZMbkhy29y90/EkLoqcvMU5L7DZzxX0Du0Mx/M5Jj3X2XbAZ8XULyQ50o/gDmAzi5CiH5YEHXbFW+CugbJA8KIfSTPJTkaSTvKLD9zjdZg+R1ERr651Zj+ZvsOYMcc7sawGwA07u7u7ex6ukiOYPk6gI7lYbVFACSPBfAwkT//VUuAOY3Go0JVhEkD0z1WscIgD1M1gAwK8JF/p3VUPYNGsC3R/DP9+HsLdgqwt23A3BRwQ/zt62GSI4leXGqnWxVU7Xiv85zuyTVa97mPNDf37+ZyRoAvlmG/aBTl21/SfKWVrbOBHCilRxJkLy34M544aRJk15mNZPvcLcg0Q62sqli8R8A4JRUr3s7A+Awk7VITouxH3QIYVuriXy3qhtHeWNOtxKaOHHiSwCcPjDqUXD+0WqG5E4kH021g61qqlz8850TXwPg2VSvf7v2Jujp6dnKZC0Ae0daZvFOqwkAZ7XjW3bZrhmAD5Oc16GH+QdWM9mpaCTnpNrBVjVVL/51GQXQv/+NIDkl0gU/3Gog/0e2oo2z2bsscdka2oERjw5lbh3f5ElOS7VzrWrqUvwz7r41yQdSbYvRBMBsffsf5Nt1pAt+ntUAgHPaPHKymyUKwB4Abu3ww/x0s9l8m9XPGJIPptrBVjF1Kv7rjgin2h6jyPPuHkw2LlLH8hervjEDS/3amDMtIe7+BpIzANwznN+vw36itcOuiXaulUwdi/8AALNSbZdWAuAEk8GRvCzShd/ZKizb5CfCdZtjHZQNk+VHqU4nefPAev5E8l2rKZJHp9rBVi11Lv6ZbH8SAH9OtX1GmBs19D8EAMdFuvhftArLhusjdD5/tSLkk8pCCBMBfJzk0QB+nvCWqpfU+UEG8INE26VSqXvx3+AkvidTbadhZp6772CyaQD2ivQw/doqDMCHI1y3ZW0s7ruTPAbAefkGPdcBuC0/AGoegJWJPrgb5oa6H/QD4MJE26YyUfFfX7YqqaxLAwE8XtO5Qi019OsjHgIx1irK3ZsRbtz72zCT99iqbA0L4Pfuvp3VHIBzUm2jKkTFf+Pc/SMkl6faboO05ZIQQo/J8EVc/nG0VVS2eUa7v5EDuH4Uv8cB3Jfqg9lC7tUQ3hoA/jXRNip9VPyHXvYLYHGq7bfh7qDuvovJyAD4XqxOvAxr21sFYHabb+CjWp2PUNbhuo0FwP9mI1MmL7zcpdpWZQ6A+e4+3mQ499/DqbZjFgB3qy1bFELYc92LWZe17aMFYHobb+CVAMa1shlRxQ7zuKWnp+cVJusheWei7VXWPKiCMbI9YwBcnWhbXlrHc0HaJttZjeQzkRrnKquo7LoBmN+m6/R9G7kuALcl+lC2kl+6+9YmLwLggETbrHTRsH/LxgD4MoDnEmnLp0geaDJ6JK+M1VDu3msVFULob8NcgIeyOQUttNnHUu1kW8iP+vr6NjfZVOf760Tbrkx5UMV/dACMG6gXnQqAy/WZsI0AHBaxsa6xCgNw4iiuzbMAaC1IeEhuJFnu7l+o8lyRdnH3HUjem2g7liEa9m8jku8HcFOB7bcawOXu3jSJMqt9ZXahdULgyAE4AsCqkf7zd/cwis82KxLtaIe97FH7dI/4OX0TyT+m2qYJR8U/EpLvAnBRrE8DAJYA+DHJySZxkDwEQMytX//o7ltYhWUvOSRvH86EP5Iz82H/lrh7SLSjHVYA/EwTd1re6OklAM4o+wugin+1ZM8zyQMBXN6GpYOP5huY7at5QXF1ATihoE5/ulVfV74s7yySc/JNeZbnu+9dH0L4EoBxie5EGD35csXDNeTflkmor8u38r6D5LJU21zFv36y+TwhhB4AnyP5HZLXArib5EPrvBw8CWB+vsLlSgBnADi42Wx2q38oqJFInlvkca6NRuONJqluRVzExJ03m8TQlS/VGqesjXaSFBlk21gAV3SgCPxGs73XqsMnAAD3A9jLRESks0II23Z4/fhJJi+o8CTAZVlb6xueiEgC8n/+N3W4MDxP8v0mowLgmoQL/0wAO5qIiHRYfkxsQkXjMQA7m7yg7BsB5ct1Ts5WN5iIiKShv79/MwA/TW1LTu3mtFZZtwIGMB/AcdrDX0QkPV0AfpjocPFcrQdfq0SHAS0FMIvke8xsjImISHpInplo8R/Ib7VcZ42UjwPOty2+GsD+3d3d25iIiKQLwKcTLfobZk62jtmk5TO7AdzX5jZZQfJmACdkLxl9fX1bmoiIpC+E0FOyHcLu1Mzx0a3wIHksgIUt/LtfBOBWkj8iOQPAB7MtZ01ERMolPznsoUQL/abyKMn3mIxqtUcIYXeSxwA4L99Te2a+f/zxAKYDOBjAPu7e6+7bm4iIlF9WAEjekmiBzzPkYTkzTERERIaP5MxUi/tIAuAizQsQEREp4eYwow2AJwAcbCIiIrJx+Wlgf021mI8yv2w0GhNMRERE1kfy4kSLdzuXpc109x1MREREzEjul2jRjpGnAZzi7m8wERGRumo0Gq8FsKioGfr55kJzE1ktcAmAPhMREakbkpcVdYwvgP3z8+hfR3JeQqMCDwA4y917tTe9iIhUXrbhS0EFdjXJQ2wdAN5B8skEVw4sADALwMEk364XAhERqZTsiN8Ch+Jn2EaQfBeA5xKdKzCQJ0neTPJ8AMcBOADAHu6+a7aH/v/nTb29vS/PNlAyERGR1JE8pKB/1CfbJgDYm+TziRb/kX7iuIfk2dmLgYkkJISwLYCPkzwJwE8AXKRULhcCOIXkvtqiW4bqDBYWUPyvyUYahrMKAcDKRAt7SwFwRQjhzSbSKfkkX5LfJ/lMqs+KEiUrAFyg/U/kRQCcUUABvHvSpEkvG8Fv2qsEnwNGvBOhu7/XRDoAwD4AFqf6fCjxk/eph5tIBsCOJJdHvukWu/tbW5yUuDTVh6nVB9Dd320iBXL3L5BcnepzoRQbAGeYCMlvFXDDfcxaRBIkH0v1QRrFMcVjTaQAAD6u4q9sJNNM6qunp+cVBfzD/lEbvltOIDk30Yeo1ZxrIpG5+/YAFiX6DCid/xywk0k9kfxa7DX02ZI4a4OJEye+BMBPU32YWtl5MITwehOJiOSpqT4DSucD4EKT+unu7t4m8tD6apIfsPbqInlkhVYIHGkikfT19W1e4RM9lfYdivZKk3px9y9EfrM8J+Kyxd1IPpToAzWSXGYi8Z6TdyZ63ysJxd3/yaRWxpB8IGLxX5TNL7CIsiWFJM8t+eSmO00kEgBHJHrfK2nlVJP6CCG8ryqzS939vQDuT/TBGioPm0gkJL+R6H2vJBQAs0zqA8CFMf/VuvsWVpR8giDJ7wBYlepDNtjmSCYSCcmTUr33lXQC4DyTenD37WJuAwrgg9YhzWbzbQAuKtFngStNRJ8AFH0CkCK4+2cjFv+bLAHu3kvy5kQftnXzbyaiSYCKJgFKEUjeHutGCiHsaQnJzxOYneiDt7rZbL7FRLQMUNEyQIkNwM4R//3/wcy6LEHZcbwkZyZ2uNDFJmLaCEjRRkBSAADTI95M+1ri8qNQjwfwSIcfusU6Glgso62AFW0FLEUAcH2kG+n+bLjRSiL7rSTfA+B7Rb8MAFgFYG8TeYEOA1J0GJBEFELYNtaxvwC+auU1Jp8s9S0A90R+4JaR3M9EXkTHASs6DlgiAbB3rMlsAMZZRTSbzdeEED4K4HQAt7bxpWlONhfBRDoEwD4AFqdalJTChv0PN6kXAD+MdEP9yiqsr69vS3ffxd0/QXJGPpnwVwDuI7lsiOuzlORl2QuFmY0xkQ7L58F8n+QzqRYpJUpWALggO1rdpHa6ACyI9AKwv9VbV3bkcdaxAhiX/cvP86b+/v7NTCQ1+SfBfG7ASQB+AuAipXK5EMApJPd19+1N6onkTpGK/7PuvrWJiIhIegDsr61sRUREagbAWZG2kPy8iYiISJoA3BrpBWC8iYiISHrcfQsAz8Y49tdEREQkTSQnR/r+f7aJiIhImkIIn4n0AvAvJiIiImkC8M1IR/9ONBEREUkTyf+IsP5/iXa2ExERSRiA2yKMANxgIiIikq5Ix91+10RERCRNPT09W8U4AhTAUSYiIiJpajabb4u0AdAnTERERNIUQtg90hJAmIiIiKTJ3T8S4wVAR0uKiIgkjOS+Eb7/rzIRERFJl7t/NsIIwFMmIiIi6SJ5ZIQRgAUmIiIi6QJwXIQRgLtMRERE0kXy1AgjALNNRERE0kXytAgjAL8zESk9d9/C3XcAME4ZOu6+nYmUBYATIowA/MFE1jF16tSXkjyI5GUA7gOwMgvJe0leCuBT7r61SceFECYBOIvkXQBWkfybMuw86O7jTQrV19e3OckpJKeRPJvkdQDuAbAQwJKByekAFuT39dUkzyR5KIBGbQ+uA/CVCC8Ad5tI/g8SwHSSTw3jvllEclp/f/9mJoUDsCOAnyVaWMsUvQQUoLe39+UkDyF55UCRbzV533MpgP27u7u3sbog+cUYD4BJ7U2ZMuXVAG5q4f65Nnu4TQoDoI/kY4kW1DJGLwGRhBB2I3kJyWWR2m4pgFnNZtOt6gAcFuECPmpSa/nb+dxR3EN3ZJ8NTKLLh06fSbSQljl6CWhv4d+T5C0Ft+FV7r6rVRWAT0W4aMvMrMuktkj+og2fki4wKeJF7cFEC2jpA2B+o9GYYNIydx9P8qp1ruv/sXf3QX5V5R3An6Sd8mJbHIMCWijV1WLSZHd5vt97NwG72GqFig0MxIJMC2ISS2NKG4jBDtW0pDGAtXGYvvCiNojM8C5NHN50FEptGoICrQiEBCgJCAIhCeY92/aOd1tCXnb3t79zf+fc+/3MPH/sn3ufe855fuece04n8rgUwJFWNwDOCPHA8jw/zKSR3P30Nr5LJ5oEQ/LvYh086xIqAlpT7AUieTHJrZHkcYO7f9LqxN1PCPGwGrF+IntF8pE2NrrvmQTbo0FyW6wDZ81CywEj3z90V6QF3a212aNUvJSBbgOcatI4JHva/S7p11MYAGZFOljWMgA8qyJgaAAI4Mex5rGMVXmev9tS19XVdQDJgQAFwKdMGifQVyUzTNoOwA2Rdq61DS0H7F+WZb8FYEOs+XtDLl/KsqzPUgfghQAP6G9NGgfA1XqX0gDgB7F2rnUOFQH7HPxPSW1JCsBGAFMsZSQfDPBwvmvSOCRvDtDI/smk7QCsibVjrXuoCNgdgH4AW2LN1zAOEZpgqSL5jRA7JvUpYPMEepeuM2k7AA/H2qk2IVQE/Iy7TyT5aqx5Gm4u+/r63mEpKs9E/m9t3hIVAM2hY39VBHRacewugEdjzc8Ic3lfcSeBpYbkOSEeSJZl00waheS/qwBIA8kLYu1MmxRNLgJIXhtrXlrM5QJLTZ7nkwI9kC+aNEZxdC+AHSoA0uDuR5HcFWtn2qRoYhFQ/ECMNR+jiF3JfRlQ3ti2JcBL/UOTxiB5YqDO8SqTIAB8PdKOtHHRpCKg/LGwNtZcjDIeSW4pgOSKQAcCHWXSCAA+H6hj/LhJsCuASa6PtCNtXDSlCADwhVhz0MhzcEheGehhTDdpBAAPaDNpegB8BMCOWDvTpkXdi4DinhgAm2N9/m3K4fN9fX0HWSpI/lGgh3GTSe3leX40yYEQDckkOJIfrXunnFLUuQggeVmsz73NOZxlqXD3iaFuUEqqEpKWALgw0Ptzg0klSPYAeCDWDrVpUcciwN0PAbAx1mfe5nimuNHQEjGG5LpA6yFnmtQayRWNr6LrYWy5JHAbyU2RdqyNiboVASRnxPqsA419H7RUAPhqoJf4DpPaCjX9X14rPcmkeuV97EVu/zdckTvJkwG80okiAMCiOgTJ/6rome0k+R0AC7Is+0SWZdMAzCyXH5YP9lcVxNcsFQB+P1Qyent7325SSwD+PNB784qZjTWRSJAEgFdi/cWp4DYAXxhqvCmu8iX55QrOwXitv7//QEsByXEAdgbqzOea1E7xvWvAqv5mExkJFQFNjh8B+I0RHkb0vsGl71BRXHFsqSC5PFAB8IR+zdWPu58ecBrvDBMZIRUBjYzv9/X1vcVa0Nvb+6sAngrYj11iqSA5P+CDOM2kVgDcG+hd2Tx+/PhfNJFIqQiIJp4jefgojyUeH3DT679YKvI8f2/ARK0wqY0sy7oDviu3mEjkVAR0PgD8XptyOTvYXqaUkFwRcD3k/Sa1AOBGTf9L0+V57ioCOhMAvtfOO3FCLQVMnjz5bZYKALMCJuxOk+QB6CU5EGr6v7gsxEQSAaAXwEuxDpR1jSzL/tDaiORfBDoP4HhLBclxJLcFPBzhBJOkAVim6X8RzQR0MAZ6enream3k7scGKlROsZQAuDXgLMBDKR2RKLtz9+MCN+wPmUiCVARUe0CStdn48eN/AcCO2GcqgnP3qYGTd65JisYAuC/ge/G4mY0xkUSR7NFyQCXxYKD8vdj4I83LDRFrQ366oc+80gPg3MCN+k9MJHGaCVABkHQBUAAwN/AswKUmySh2sgJ4OeD7sDHLsl82kRpQERA2AKxNZQkAwB9Yaoqd2CTXB0zirqR2RzYcgOsDN+orTKRGtByQ1ibAomjTJsDXAfD5wEl8zN0PNokagJNCN+biECoTqRkVAUHjbGsjAJ9t/GeAr+fuR5DcGjiJi02ilef5YQCeD/wOfMNEakrLAWECwL+1c98byWcafxDQGwG4KnAidyV1Y1KzjCV5T+j8u/tEE6kxFQHB4lRrAwDnBypSXraUkXwPgB2BK7kX3P0ok6iQvLiCKv46E2kAFQFB+o/n3f0IGwWSE0i+1vjLgPYFwN9XkMiVfX19B5lEAUA/gJ2B8769t7e3y0QaQkVAkLHjByTHtXip2a8Fvg54gaWuuGsZwMv6NdgM7v4uAC9U0Hj/0UQaRkVAmEPE8jyfNMJ+7oTQ+5tqs7wN4MKKEjnXpGOKT2tIPllBnrdkWfYrJtJA7n6sioC2x3aSi8t+Zahl7SWDF5oFjE39/f0HWh0UhySQXFXF9506Krgz3P1gkssraqx/aRKrMe4+keRHy3vS5zU4Zvf39/98qCKA5HIAKxsSGyv6EbmzPLJ8IckZWZZNI3keycsHr7uvKK61OiF5alUJLJJmUpnyM5jbK2oYj9WmMq6RYvYHwAKS6yL9hdepuKloHyajQnJ6pPkNEgA+YHUD4NsVPcBt7v67JsGVR2DeVtUJXroSOj7FjWWaklYREJK7HwJgY6T5bXc8XctbbwG8k+SmiiqozVmWfdgkmK6urgMG7/evKL5iEhUAl0baiaoIqJmmvGsA/tjqiuR5FT7InSSnm4Qa/JdW2DB+4u6HmkSD5LxYO9FIQ0XA6E8W3Rxpbtt2NkHdP2kfQ/LuKi9+yLLs0yZtvd2P5P0VN46zTKIBgAB2xNqRRhwqAjQL0Mxf/4MAHEny1Yof7uJarqtUrPheluTTFTeKr5tEheR3Yu1EE4hbVASM6mujpyPN66gPtGvMGEXynA484Hvd/QiTlm/2A7Ch4ryt0l3/cQHQG2snmlCoCGgRgNMizelo7zXJrEkA3NCBB70u2SsWO6T4lhnAJSR3VVywbSHZYxIVAH8VaSeaWtysIqA1AJZEmtOWomhT1jSTJk16E8lHOnTq0xwzG2sy5NG+gwf8dCDOM4kOgLti7UgTDBUBLY4dAB6NNKcjje82Zup/L2vKR5P8SYce/L+6+zEme1WegrW+U5ulTKJUo45XywEJK2/iWx9pTocbzzR+WTrLst8BsLNDUy+bAcxtbAW2j1uuBk/261A8onX/eJF8MtLONOXQTEBrfdX7Uv00EMBLeZ6/18QMwNwOJ2RFlmV91mDFEbsAPtfJBgVgrS76iRvJFbF2qomHioAWuPtUktsizeleA8DGpo83eyD5tQ4nZoDkTXmev9sapmxEqzvcKDYUnxmaRI3kl2PtWGsQWg5oQXF1LoANkeZ0twDwY3c/1mTPS2UALI3kasgrigNvrN7GkDw5kl902939gybRc/czY+1caxKaCWhtP5mTfC7SnA4O/o+7+7tM9nu5zJ2RJGwryWtJTrCaAfCBiKZyBwB83CQJ5Q7sl2PtZGsSKgJav5Xyjkhzekt3d/ebTfZvypQpvzT46VlEA9TSLMvebwlz90NJziH5o8iq4gtNkqJ7AFQERGwsgM8A2BJJHl/VnTQj1NfX9xYAD0fYKFeRnJ/QPoGxReEC4HqSWyN7lgMA/tQkOeVy3QORDpx1Cu0JGN3ts9/s8I+bpdrU3CKShwP4z0gbZhHLAZwfVTFQ7uYvrkIGcBWA5yN9dgMAZpkkq+jY6nouu4qA+iD5IQD3VT1j7O65yehnAkjeH2nD/L8A8BTJK939dJLjrEJF50ASJGeTvJnkplifUxm7AMw0SR6AIwGsjPQ9q1OoCBglkr8J4MZQSwMANgL4qo4vb38RcBDJ2yNtmHsNAGsA3Abgc1mWnQLgncUGx3bMirj7cSTPJnlZWdn+NNbn8MYAsFMb/uqleK9JXqSNgSoCUlBsxCM5HcDSNnw6+CKAG0l+zN0PNgl6Ic01kTbMYUc5Jf8gyX8GcDXJywEsIrmQ5LwiAHyW5OUkrywr1jsBPJTAL/shv/MvliZMaqm8qvVjAJaUX5isrmsAWKMiIH3FuJJlWR+AWSSvIHk3gMdJrntdcbAewLPl5ulvAvgbADPLM0vGmFRmDMn5sQ5wiv3G6jp+TinNBeDCDhXSy7q6ug4wkSYieRbJ1yId6BR7xv0NOFRJGkhFgEgHuPsxAH4Y6YCnKAPANcUasYnUlIoAkQ4obowjeUusg1/D46fu/kkTaQAAn+lQEXC9mY01kaYCMJPk9kgHwibGf7j7RBNpEJIXdai9XWwiTebueeSHBjUhdgG4VFP+0lQdKgK2u/sxJtJk5YE481K7G7oOUX7eeKKJNFwnigAA15mImGVZ1k3ywVgHyzoFgB0AvuTuh5iIdKQIALC52BNlIvKzAx5IXpTSKXmpBYB7i8MwTET2QPKCitvjSSYiux0j/A4A1wDYGetAmmA8R/IsnYIlEs9MQJZlnzYR2RPJCQCWRTqgphKvAVikqUaR+IoAAJeaiOxbcTe+7jEfcWwCsKinp+etJiKxLgfMNxEZmrsfD+DJSAfcmAb+L5E83ERkVEjOC9xeZ5iIDO8KUwAvRDrwdjQArC0vXRpnIpJEEZBlWbeJyNAAnBHrANzBe/qXufvU4gsKE5GUlgOe1KZckWEieXusg3HF8RyARXmeH20iYokWAbNNRIbW3d39ZpJbIx2QgweAJ0he5u7HT5s27edMRHaX0HIAgEd1K6DIMAE4N9bBOVSUVyfPz/PcTUSGkkoRsIlkj4nI8AC4I9aBuo27978N4JIsyz6szXwi8SI5h+SuFor6jSR/20Rk2CcDHgRgc6CB9x53/zMASwA8RHJ7BRv31pC8G8A/kDwvy7JuTeuLpKUs1NeNoP1/n+QEE5HhA3BSwAF5iu1ubG9v79sB0N2nuvunSC4sC4S7SN4D4F4AK8t4lORqAE+Uf38LwK0AlpC8guRCkrPL/+E9unZXpD6KEzbLUwNX76OPGSC5guTZKvJFWkBycaDB/2ETaQiScwCsVPx/kLzY2gTArwM4DcBMkjOKGQJ3P8IkCJKHu/sJ5fNeWP7g+gqAGwFcTXIxgAVZln3C3Y9z90NN0kPysUAzAHNMpCFIfjHS/S+djAF3n2oSvTzPDyN5DslrATzbYr5XAbjK3c8sviwzidvkyZPfFrDhH2UiDaECYO8B4BWdqRGn4lNJAGcAWAZgR5vzvgXADSRP1vJMpAB8JFCjv89EGkQFwH5jufbnxGPSpElvAnA+gGcrKgLXADi/v7//QJN4kPzrQEm/wEQaRAXAkHGZSaeNJTmd5Isdmg16iuSpJnEA8K0QiXb/n/buPcqusjwD+DuBKKgY7oJyDQFkCJmZvs/z7ZNhylgBoS1UQaZALaxF0kRpWVL+aIN2wbIKClYwUVAimFWF1lpLZRW5LCCA5X4XlVuJdCFyCWAgXHOdce3lDK6QkJmcs799vrP381vr/RcO+9uc95l9vv29foCJ1IgCwLg1HEL4hElbhBB6ANyRyL1wVQhhT5P2IvlSjLP0NYRD6kYBQPsBUhVCOBHAG4ndC68AOM6kPUjuFGlxf2AiNaMAMOG6S/sBypH/1k/yvxK9D8bqQnefbFIud/9IpGR3qonUjALAxAvAeSZRDQwMbEPytlTvgbfV9f39/VuZlMfdPx3p9//MRGpGAWCTalibweIJIewC4OFE136DBeB2nR0wqlO/sACs0aseUkcKANoPkAKS23Va8x8rAHfkP1uYxBfpt6ElJlJDCgBN1d3aD1D4b/53JrrWE60rdHBQCUjeGiHB/cREakgBoOn6ukkhSF6a6Bpvap1tEhfJJREWbr6J1JACQNM1DOBok5aQnJPo+jZTa0keZhIPydeLXrgQwj+aSA0pALRULwGYatLKpMQ3El3bZuv53t7eHUyK12g0toyxaPmBEyZSQwoArRWAe/LhNCZNneia6rq2WN81iRIAto2xYHpsI3WlANB6AfiGySYh+VeprmdBPw8NmhQeAD4U6QyAA02khhQAiil3P8ZkQtx9MsknU13Los4HMClWX1/ftEj/8/6RidSQAkChZ8TvazIuALNSXceCf1r+qElxAEyPtFDdJlJDCgDFFYAH831KJhszCcBjqa5hkQVgsUlxsizbL9JCTTeRGlIAKLwuNHlHIYSPJbpuUcrdP2xSWADYI9JCwURqKFIAeBrAOYnVxSV+8Z+cZZmr1i+SV5W8Ge8xANcA+E+S1wF4ouSnAGeZpD0KOITwxyZSQyTPr8sGKAAXp/qXoqrQWuLup7zT+/juvhvJ00k+U0IA+H8z6zJpnbtP0WuAIgoAzZ4jAuDBRJuWqsUCsBrA59198ibMIJhPcnjsn6GfmBOWH7gRaYFOMJEaqlMAyAHYl+SrqTYxVdP1GsmDrQkkPwVgdcTP9lmTYkQ6OnKeidRQ3QJADQ6hqV0BWNPqU9wQwuyIn+/HJukOA9JJXlJXdQwAOZILU21oqk3faJf4VMInTYoB4H+V0EQUAFoxODi4Bcn7U21qqgnXM0WdvUByp0hPmIfd/T0mrSP5gwhfWI+ZSA3VNQDksizbG8AriTY21QQKwJlWIACXRPqsvSatA3BejN+QlNCkjuocAHIAjk21uanGr/xwOCsQycMjfdYjTFoH4NRIN5KbSM3UPQDkAHwr1Qan2mi9bGZdnfCqubsfb9I6AIdEupnmmEjNKAC89XrxfYk2OdVGZi9E6jHLInzWuSbpngZI8lITqRkFgHUmjb6carNTrV8A7okUAJ7VWQAJI/l8hJvpKROpGQWAPwghDKXa7FSlbd7uivEmAIBZJsUAcGOkmQB7mkiNKACsi+QFqTY81Xq1Mv/5phMGzrn7MSbFALAgUqL8OxOpEQWA9fcDALgn0YanWr8OLri3zIoUAA41SftRHYAbTKRGFADWB2AqyZcSbXiqde+171mBSN4cKQDsZVKMmTNn7khyOMY0KXff3kRqQgFgwwAcSXI41caneqtW5Qc6FbTmg5E+44qhoaHNTIpD8pFIifIkE6kJBYCN/9SYaNNTrXu/3dhqg3X39wB4KNJn/IVJxwzzuNVEakIB4J11d3e/i+RdqTY+1To135qUhweSP4oYUL5jUix3Pz7WgoUQuk2kBhQAxt8VDmBZok1Pte599+08tNkm6O/v34rkFZE/13EmxRoYGNiG5KpIi/Z1E6kBBYDxufvHtR+gY+p+dz/QJoDkEWPj5SPWcJZlHzApHsnrIiW25T09PVubSMUpAEz8OiXa8FQbrlvc/RQAfSGE95uZNRqNbd09APgHAA+U9DluNomD5MkRH9t8zkQqTgFgYgYHBzcHMFXVcn0z0cAQ6+fk2SZR5wKsjRQAljYajS1NpMIUAKRM+St7dfk5BcAb7j7FJB6St0ZcwL83kQpTAJCykfyfVJt2wfVNk7jyRywRA8AyktuZSEUpAEjZ3D0k2rCLrFV9fX27m8Q1Y8aM9wJYHnEhzzeRilIAkHYAcG2ijbuoWmhiuU4+FCivlST3MZEKUgCQdiC5D8kViTbvlp8c9/b27mBSDpKIvKC3m9kkE6kYBQBpFwBfSbWJt1Lu/mmTcpUwwvNkE6kYBQCJavzz9x9OtZE3WTfpj8U2cPdjIj8FWO7uu5lIhSgASDuR3J/k64k2801+dbyvr++DJm0xaWyaU8S6Mz9r2kQqQgFA2g3ASak29U0cJX+oSfsAmFXCQp9rIhWhACApIPnPqTb3CdSwTvxLwOj4zl/HXmwAR5pIBSgASCpIXpRogx+v/skkDQDmlvAU4JUQQo+JdDgFAElIF4CvJdrkN1TDJL9gko6hoaHNSP68hMV/GsCuJtLBFAAkNSTnpT4vAMAaknNM0kPysLJmT2vYg3QyBQBJUQjhEwCWJdr8l2rDX+IAXFPSDXHfwMDANibSgRQAJFUAppK8O7Hmf+3MmTN3NEnb6Pulq0q6MW7r7+/fykQ6jAKAJG4SgLkAlre58b8IYK6ZdZl0BgBnlXiD3K7JgdJpFACkE7j7zgAuIbmy5Ob/Gsl/6enp2dqks0ybNu3dAH5Z4s2yJMuyvU2kQygASCdx991IXkDy1dgDfUie7e7bm3QuAP0k15b4JOA5dw8m0gEUAKQTjY6BP4HkdQBWF3TfvgngxwCOzv94NKkGAAtKfmy0guRnTCRxCgDS6fL9VySPGL2XbwawdIL36VMAbgBwVgjho41GY0uT6hkcHNwCwANt2DhyWZ5UTTa4JiGE7izLnOQ+mrGwIQoAIs3If7MPIfS4+wDJw0MIQyGEjwHod/cDuru732dSH/lv823aSbqE5EEm5u5T3P00kncCWPO267SK5E0k5yiJj1IAEBEpBoBj2/QayVqSC+v8NADALAAvTvTRXH4QiIkCgIhIUQBc3MZ3Sf+vboOEBgcHNye5qMlztr9sogAgIlKE/PEygNvbfKLU9e5+gNUAyUUtNpMvmigAiIgUobe3dweSS9p8stRqkvOrvBkFwKyCJm4dZqIAICJSBAD7AvhtAudL/7yvr293q5g82ABYWtRPJ/lPCSYKACIiRQAwGOFoyaYaXNUGTLj7aUVeoxDCkIkCgIhIUUgeNTY0qM11dZUGTZC8q+Drc7mJAoCISJEAHJ1CCABwtFVAvtGy6OsJYKmJAoCISIwzAgCsaXMAuMcqIMuy/WJcnypvmNwgBQARkXK4+/FjgyXaVVWYJgiAkQLSriaFIjk/wlrdaiIinQbAIQCWt/EpwEnW4QBMjxSO9jMpFIBLItzD15qISCfKsswBPNuOAFCF0+/y1xpjXBuNWS4egB9GWKsfmYhIpwoh7Eny0TYEgAuswzUajW0jXZuDTQpF8uoI67TIREQ62Wgju7rknwC+Yh3O3SfHuDYaEFQ8krdEuIcXmIhIBXSRnAdgTSfvAQgh7EJyDsmvkryU5EUAzsxnZMeYxU9yRYTr81mTQpH8dYR7+EsmIlIVeaMk+UIJIWAfKxCAfpI3kxzeyL/zZZJnu/sUK0ika3WhSWHy8dRj90XBNc9ERKoEwK4Aboz41/+9RT6GB/DtTT1sh+RBBV2rByNcnxtMCkOyN9J9/NcmIlJBXQDmAnglwhfnJwuawb8FgMVNfo6VJP8yxd3lAJ4yKQyA4yIFAJqISFXlbwkAWFzgl+Y1ebhI4d1uAG+GEBotfoYvRmguwyR3MikEya9Gel1ziomIVFxXCGE2gOda/NJ8PMuyDxQUTIYK+iL/VSubA0l+KlJzOd6kECTvi7BGz5iISF2EEN4P4Nwmd77/IsuyPQp69L85gMcK/DI/uYXmgkiPl79j0rKenp6tI73ZcpOJiNSNu+9F8vIJNrI1AL7R39+/lRWE5MEFf5nfZ03K/7si7TBfYlLUBMyRCHWRiYjUVQihh+SFAJ7YQON/CMA5AKZ2wGCX4VYG8AB4ItKBQN0mLSH53Ug/0ZxiIiLy+7+EAUzNK9+dbxHFeEXR3f+shSazSPMS0pPfhyRfjrQ2+5uIiJSL5CMRvtDntBBIToi0D+A3Q0NDm5mk9vrfUjPrMhERKReAhyM8bp/dwlTAD8Y6NCmE8CcmTSF5VaQA8O8mIiLlA7A4wpf6n1oLxt5KiFCXmzQTyqbFmmsBYK6JiMj4qr4JMLfOccTFf7bpJk0dEhWj8nBhIiJSvvyxeGqzCUgeFXFw0qUmE+buu5FcGWktfmUiItIe+UFAJB8t8Ev9MwXtOH8p0iPn1e6+l8mEkLxg7NppBLCISMUUeMDLo3mgKKjxLIz4FOAKk3GR3J/kqogBYF8TEZH2AnBxq8OA3D1YQdx9gORIrAJwpMnGdEUeY32HiYhI+02bNu3dJK9vdhywux9jxeoiuSRiCHhyxowZ7zXZoBDCiZED2N+aiIikwd0nk7xwU87jB/Csuw9YBCS/ELkJfc1kPSR3ArA04rVfSXI7ExGRtIQQGgAWjxMEXgLwpfzY4oifY08AqyM2ouEQwp+bvCU/LRHA4sjB64cmIiLpGj2V729GxxZ/f/T9/DMAHOLuk60EAC6L3IyW9fX17W5SylOXvLIscxMREdmYEEI3ybWRm9Jt+R4Iqzl3PxTAmsiB6ycmIiIyESQvJzkSua6o87CgLMtmjJ29ELPc/UATERGZCJK9Y/sRItdFVkOjo6efjX19AdxgIiIim4Lk1SRHYheAs6xGGo3Gh97+uqWmMYqISDIATB87la6EusDMJlnFufteZTV/ANeYiIhIM0ieT3KkjALw3/lMAqsoACT5fEnX8g0AU01ERKQZ+ZkDJJ8uMQQsnjlz5o5WMe5+DMnXSI6UVGeYiIhIKwAcR3KkrAKw1N0PtQrIX3UEsIDkSIn1eJWfpIiISIlIXl9yCFhD8oxOfk0wy7K9Sd5HcqTkOsxEREQKOqFwGoDlZTczAA+QnGkdJP/rG8CZAN5sw/X6VxMRESkSgGNJjrSh1gK42N23t8SRPJzk4+24TgAe1rRFERGJguRFJEfaVK8CWODuO1ti3H0AwJXtujYA3gwh9JiIiEjEx9s/IznSxnqd5Pwsy/aw8cSf4vcXAO4gOdLOCiHMNhERkSruB9hQAbgXwKllzronuT+Ac8aO8k2g/sNERETK4O4fb2KKXeyDb65099NGH4VPKvC/dQqAI0nOB/AwyZGE6u7u7u73mYiISFnyx85jA4MSrBdIXgXgPABz3f0jIYRdenp6trYN6O7uflej0diW5P4kjyJ5OslFAO4dCzqpFYDHent7dzAREZGyAfh8ogFgvOb5CoDnACwjuSrVz7mRejrfA2EiIiLvoFLzAlQcGd1/0WsiIiJtNgnAv6XaMCtWr5M8yERERBIw9krctxJtmpUoAMvc/UATERFJDcl5qTbQDq+n3f0AExERSRWAkwCsTrSRdlwBeAjAriYiIpI6AJ8E8GaqTbWD6pb89UQTERHpFCGEbgC/TLSxpl7DABbk5xOYiIhIp+nv798KwGWJNtlU6+UQwpCJiIh0uhDCiSRfT7ThJlMA7gEw1URERKoiy7IZJO9Ptfm2uVaR/LK7TzYREZEKmpQ/DQDwYqKNuPQC8FMA001ERKTqSO5E8vsJDxOKXgCezcOQmXWZiIhInQAYBPCzVJt0pFpBcr67TzEREZE6A3AIgDsSbdhFNv6F+VhiExERkT9w9wEAVybawJutVwEscPedTURERMYNApd1+KuDjwD43MDAwDYmIiIiE9doNLYMIQwBuLIT5gsAWEZyYR5gtLlPRESkAAB2JTkPwE9Jrkio6f8GwPcAHKn3+EVERCI/GXD3gdHxw9eTXFli039hdJ/CvCzLXH/pi4iItEk+cyAPBCGE2QDOJXkFyUdJrmrhL/vfArid5CKSpwM42t0/rIYvImX6HSOA1MAz7xOKAAAAAElFTkSuQmCC;container=0;" parent="1" vertex="1">
          <mxGeometry x="163.33458333333337" y="243.33545454545455" width="63.33333333333333" height="63.33333333333333" as="geometry" />
        </mxCell>
      </root>
    </mxGraphModel>
  </diagram>
  <diagram id="QG3ZYEdQ47H1RFZcZKCg" name="PÃ¡gina-2">
    <mxGraphModel dx="2261" dy="878" grid="1" gridSize="10" guides="1" tooltips="1" connect="1" arrows="1" fold="1" page="1" pageScale="1" pageWidth="827" pageHeight="1169" math="0" shadow="0">
      <root>
        <mxCell id="0" />
        <mxCell id="1" parent="0" />
        <mxCell id="0KWqpl8m3U4-YdsF6HZf-1" value="" style="rounded=0;whiteSpace=wrap;html=1;hachureGap=4;fontFamily=Architects Daughter;fontSource=https%3A%2F%2Ffonts.googleapis.com%2Fcss%3Ffamily%3DArchitects%2BDaughter;fillColor=#d5e8d4;strokeColor=#82b366;" vertex="1" parent="1">
          <mxGeometry x="90" y="130" width="70" height="290" as="geometry" />
        </mxCell>
        <mxCell id="0KWqpl8m3U4-YdsF6HZf-2" value="" style="rounded=0;whiteSpace=wrap;html=1;hachureGap=4;fontFamily=Architects Daughter;fontSource=https%3A%2F%2Ffonts.googleapis.com%2Fcss%3Ffamily%3DArchitects%2BDaughter;fillColor=#d5e8d4;strokeColor=#82b366;" vertex="1" parent="1">
          <mxGeometry x="650" y="200" width="70" height="220" as="geometry" />
        </mxCell>
        <mxCell id="0KWqpl8m3U4-YdsF6HZf-3" value="" style="rounded=0;whiteSpace=wrap;html=1;hachureGap=4;fontFamily=Architects Daughter;fontSource=https%3A%2F%2Ffonts.googleapis.com%2Fcss%3Ffamily%3DArchitects%2BDaughter;fillColor=#d5e8d4;strokeColor=#82b366;" vertex="1" parent="1">
          <mxGeometry x="550" y="200" width="70" height="220" as="geometry" />
        </mxCell>
        <mxCell id="0KWqpl8m3U4-YdsF6HZf-4" value="" style="rounded=0;whiteSpace=wrap;html=1;hachureGap=4;fontFamily=Architects Daughter;fontSource=https%3A%2F%2Ffonts.googleapis.com%2Fcss%3Ffamily%3DArchitects%2BDaughter;fillColor=#d5e8d4;strokeColor=#82b366;" vertex="1" parent="1">
          <mxGeometry x="450" y="200" width="70" height="220" as="geometry" />
        </mxCell>
        <mxCell id="0KWqpl8m3U4-YdsF6HZf-5" value="" style="rounded=0;whiteSpace=wrap;html=1;hachureGap=4;fontFamily=Architects Daughter;fontSource=https%3A%2F%2Ffonts.googleapis.com%2Fcss%3Ffamily%3DArchitects%2BDaughter;fillColor=#d5e8d4;strokeColor=#82b366;" vertex="1" parent="1">
          <mxGeometry x="210" y="250" width="70" height="170" as="geometry" />
        </mxCell>
        <mxCell id="0KWqpl8m3U4-YdsF6HZf-6" value="" style="rounded=0;whiteSpace=wrap;html=1;hachureGap=4;fontFamily=Architects Daughter;fontSource=https%3A%2F%2Ffonts.googleapis.com%2Fcss%3Ffamily%3DArchitects%2BDaughter;fillColor=#d5e8d4;strokeColor=#82b366;" vertex="1" parent="1">
          <mxGeometry x="320" y="310" width="70" height="110" as="geometry" />
        </mxCell>
        <mxCell id="0KWqpl8m3U4-YdsF6HZf-7" value="Data Ingrity" style="text;html=1;align=center;verticalAlign=middle;whiteSpace=wrap;rounded=0;fontFamily=Architects Daughter;fontSource=https%3A%2F%2Ffonts.googleapis.com%2Fcss%3Ffamily%3DArchitects%2BDaughter;" vertex="1" parent="1">
          <mxGeometry x="95" y="440" width="60" height="30" as="geometry" />
        </mxCell>
        <mxCell id="0KWqpl8m3U4-YdsF6HZf-10" value="Volume" style="text;html=1;align=center;verticalAlign=middle;whiteSpace=wrap;rounded=0;fontFamily=Architects Daughter;fontSource=https%3A%2F%2Ffonts.googleapis.com%2Fcss%3Ffamily%3DArchitects%2BDaughter;" vertex="1" parent="1">
          <mxGeometry x="215" y="440" width="60" height="30" as="geometry" />
        </mxCell>
        <mxCell id="0KWqpl8m3U4-YdsF6HZf-11" value="Distribution" style="text;html=1;align=center;verticalAlign=middle;whiteSpace=wrap;rounded=0;fontFamily=Architects Daughter;fontSource=https%3A%2F%2Ffonts.googleapis.com%2Fcss%3Ffamily%3DArchitects%2BDaughter;" vertex="1" parent="1">
          <mxGeometry x="325" y="440" width="60" height="30" as="geometry" />
        </mxCell>
        <mxCell id="0KWqpl8m3U4-YdsF6HZf-12" value="Data Ingrity" style="text;html=1;align=center;verticalAlign=middle;whiteSpace=wrap;rounded=0;fontFamily=Architects Daughter;fontSource=https%3A%2F%2Ffonts.googleapis.com%2Fcss%3Ffamily%3DArchitects%2BDaughter;" vertex="1" parent="1">
          <mxGeometry x="460" y="440" width="60" height="30" as="geometry" />
        </mxCell>
        <mxCell id="0KWqpl8m3U4-YdsF6HZf-13" value="Data Ingrity" style="text;html=1;align=center;verticalAlign=middle;whiteSpace=wrap;rounded=0;fontFamily=Architects Daughter;fontSource=https%3A%2F%2Ffonts.googleapis.com%2Fcss%3Ffamily%3DArchitects%2BDaughter;" vertex="1" parent="1">
          <mxGeometry x="555" y="440" width="60" height="30" as="geometry" />
        </mxCell>
        <mxCell id="0KWqpl8m3U4-YdsF6HZf-14" value="Missingness" style="text;html=1;align=center;verticalAlign=middle;whiteSpace=wrap;rounded=0;fontFamily=Architects Daughter;fontSource=https%3A%2F%2Ffonts.googleapis.com%2Fcss%3Ffamily%3DArchitects%2BDaughter;" vertex="1" parent="1">
          <mxGeometry x="655" y="440" width="60" height="30" as="geometry" />
        </mxCell>
        <mxCell id="0KWqpl8m3U4-YdsF6HZf-17" value="&lt;b&gt;Submodulos&lt;/b&gt;" style="text;html=1;align=center;verticalAlign=middle;whiteSpace=wrap;rounded=0;fontFamily=Architects Daughter;fontSource=https%3A%2F%2Ffonts.googleapis.com%2Fcss%3Ffamily%3DArchitects%2BDaughter;" vertex="1" parent="1">
          <mxGeometry x="-70" y="430" width="60" height="30" as="geometry" />
        </mxCell>
        <mxCell id="0KWqpl8m3U4-YdsF6HZf-18" value="" style="rounded=0;whiteSpace=wrap;html=1;hachureGap=4;fontFamily=Architects Daughter;fontSource=https%3A%2F%2Ffonts.googleapis.com%2Fcss%3Ffamily%3DArchitects%2BDaughter;fillColor=#f8cecc;strokeColor=#b85450;" vertex="1" parent="1">
          <mxGeometry x="90" y="80" width="70" height="50" as="geometry" />
        </mxCell>
        <mxCell id="0KWqpl8m3U4-YdsF6HZf-19" value="" style="rounded=0;whiteSpace=wrap;html=1;hachureGap=4;fontFamily=Architects Daughter;fontSource=https%3A%2F%2Ffonts.googleapis.com%2Fcss%3Ffamily%3DArchitects%2BDaughter;fillColor=#f8cecc;strokeColor=#b85450;" vertex="1" parent="1">
          <mxGeometry x="210" y="220" width="70" height="30" as="geometry" />
        </mxCell>
        <mxCell id="0KWqpl8m3U4-YdsF6HZf-20" value="" style="rounded=0;whiteSpace=wrap;html=1;hachureGap=4;fontFamily=Architects Daughter;fontSource=https%3A%2F%2Ffonts.googleapis.com%2Fcss%3Ffamily%3DArchitects%2BDaughter;fillColor=#f8cecc;strokeColor=#b85450;" vertex="1" parent="1">
          <mxGeometry x="320" y="40" width="70" height="270" as="geometry" />
        </mxCell>
        <mxCell id="0KWqpl8m3U4-YdsF6HZf-22" value="" style="rounded=0;whiteSpace=wrap;html=1;hachureGap=4;fontFamily=Architects Daughter;fontSource=https%3A%2F%2Ffonts.googleapis.com%2Fcss%3Ffamily%3DArchitects%2BDaughter;fillColor=#f8cecc;strokeColor=#b85450;" vertex="1" parent="1">
          <mxGeometry x="650" y="100" width="70" height="160" as="geometry" />
        </mxCell>
      </root>
    </mxGraphModel>
  </diagram>
</mxfile>
